<svg id="Layer_2" data-name="Layer 2" xmlns="http://www.w3.org/2000/svg" viewBox="0 0 259.808 235.273"><defs><style>.cls-1{fill:#f3f7fb;}.cls-2{fill:#ffcebd;}.cls-3{fill:#181846;}.cls-4{fill:#a8b3ba;}.cls-5{fill:#f73128;}.cls-6{fill:#ff4130;}.cls-7{fill:#fff;}.cls-8{fill:#101030;}.cls-9{fill:#d0d4d8;}.cls-10{fill:#b7b7b7;}.cls-11{fill:#c5cfd7;}.cls-12{fill:#ff9a20;}.cls-13{opacity:0.29;}.cls-14{fill:#8c9499;}.cls-15{fill:#86c5c7;}.cls-16{opacity:0.2;}.cls-17{fill:#4d5068;}.cls-18{fill:#2b44ff;}</style></defs><title>details-2</title><path class="cls-1" d="M7.277,96.563c-8.887,25.28-10.484,53.9,0,78.559,16.112,37.9,58.666,59.908,99.84,60.631,64.79,1.138,168.1-47.52,150.622-127.489-7.484-34.247-39.617-66.2-68.556-84.2C113.207-23.181,35.578,16.036,7.277,96.563Z" transform="translate(0 -0.5)"/><rect class="cls-2" x="191.383" y="188.784" width="10.603" height="17.777" transform="translate(-82.159 199.528) rotate(-45.628)"/><rect class="cls-2" x="131.205" y="190.309" width="10.603" height="17.777" transform="translate(64.453 -31.785) rotate(17.062)"/><polygon class="cls-3" points="75.702 148.336 65.976 217.774 69.399 217.864 87.541 146.156 75.906 146.156 75.702 148.336"/><polygon class="cls-3" points="147.626 148.336 157.352 217.774 153.928 217.864 135.787 146.156 147.422 146.156 147.626 148.336"/><path class="cls-4" d="M72.433,138.094h78.36a4.794,4.794,0,0,1,4.794,4.794v5.447a0,0,0,0,1,0,0H67.639a0,0,0,0,1,0,0v-5.447A4.794,4.794,0,0,1,72.433,138.094Z"/><polygon class="cls-5" points="71.283 121.661 137.144 151.974 193.635 202.836 204.199 192.33 155.587 138.094 106.639 103.29 71.283 121.661"/><path class="cls-6" d="M67.333,107.311v12.4a19.443,19.443,0,0,0,19.443,19.443h61.391c-11.023,13.319-17.339,56.267-17.339,56.267l13.826,3.776,24.412-62.481A17.62,17.62,0,0,0,152.6,112.822H108.659l0.315-5.511H67.333Z" transform="translate(0 -0.5)"/><path class="cls-7" d="M93.636,47.8l11.458,2.161a22.72,22.72,0,0,1,16.175,12.294l9.376,19.052-9.386,21.107L120.3,111.9s-45.487,20.159-56.655,11.023L63.13,74.418,80.3,49.309Z" transform="translate(0 -0.5)"/><path class="cls-2" d="M77.715,33.754s3.633,16.323,2.867,25.814H93.9s-1.375-16.2,1.378-18.868Z" transform="translate(0 -0.5)"/><path class="cls-2" d="M101.109,20.284C100.94,17.3,99.7,14.5,98.486,11.773l-0.5.241A12.125,12.125,0,0,0,86.565,9.382,16.216,16.216,0,0,0,77.2,16.826a19.478,19.478,0,0,0-1.453,16.78A19.027,19.027,0,0,0,88.2,44.9c2.237,0.617,4.846.737,6.667-.7a9.153,9.153,0,0,0,1.8-2.149,17.961,17.961,0,0,0,3.149-6.445,41.1,41.1,0,0,0,.229-5.707C100.207,26.673,101.291,23.509,101.109,20.284Z" transform="translate(0 -0.5)"/><path class="cls-8" d="M95.4,7.853a37.542,37.542,0,0,0-4.928-3.6,18.251,18.251,0,0,0-4.489-1.54c-3.909-.9-6.544-0.644-9.531,2.26a12.522,12.522,0,0,0-3.842,8.389A7.985,7.985,0,0,1,72.4,15.5a7.71,7.71,0,0,1-1.331,2.136A14.281,14.281,0,0,0,69.418,30.8c0.7,1.916,1.816,4.084,3.624,5.122,1.454,0.835,5.226,1.468,5.94,3.222A18.048,18.048,0,0,1,77.736,30.7a4.539,4.539,0,0,1,.61-2.127,1.857,1.857,0,0,1,1.908-.866,4.068,4.068,0,0,1,1.325.869,4.5,4.5,0,0,0,2.668.914,1.865,1.865,0,0,0,1.079-.26,1.986,1.986,0,0,0,.7-1.307C86.5,25.478,85.685,22.7,84.9,20.4c-0.666-1.936-.793-4.469,1.784-4.306C89,16.241,91.366,17.66,93.84,17.8a20.681,20.681,0,0,0,14.115-4.434A29.384,29.384,0,0,1,95.4,7.853Z" transform="translate(0 -0.5)"/><polygon class="cls-9" points="89.768 59.068 93.635 46.382 95.922 46.813 98.341 67.182 89.768 59.068"/><path class="cls-2" d="M80.115,47.8L67.931,50.107A18.091,18.091,0,0,0,54.618,60.871L41.009,93.241a6.957,6.957,0,0,0,6.413,9.653L96.1,100.462l2.246-6.892-5.358,1.821L62.517,92.81a3.212,3.212,0,0,1-2.33-5.084L80.582,59.568S84.241,49.506,80.115,47.8Z" transform="translate(0 -0.5)"/><path class="cls-7" d="M80.115,47.8L67.931,50.107A18.091,18.091,0,0,0,54.618,60.87l-9.4,19.978c7.349-.766,14.97,6.878,20.208,2.756L80.582,59.568S84.241,49.506,80.115,47.8Z" transform="translate(0 -0.5)"/><polygon class="cls-9" points="80.007 46.509 89.768 59.068 82.878 68.101 76.628 47.301 80.007 46.509"/><path class="cls-9" d="M126.908,203l-3.39,8.588v6.78H165.1v-1.876a3.633,3.633,0,0,0-2.792-3.535l-6.7-1.6L141.6,203h-2.486l-1.13,2.486H130.75L130.072,203h-3.164Z" transform="translate(0 -0.5)"/><path class="cls-10" d="M123.518,214.748v3.616H165.1v-1.876a3.622,3.622,0,0,0-.445-1.74H123.518Z" transform="translate(0 -0.5)"/><path class="cls-9" d="M195.839,206.369l4.858,7.851,5.435,4.053,24.859-33.335-1.5-1.121a3.633,3.633,0,0,0-4.5.125l-5.284,4.417-15.08,6.234-1.486,1.993,1.317,2.392-4.323,5.8-2.4-.943Z" transform="translate(0 -0.5)"/><path class="cls-10" d="M203.233,216.112l2.9,2.162,24.859-33.335-1.5-1.122a3.623,3.623,0,0,0-1.661-.683Z" transform="translate(0 -0.5)"/><polygon class="cls-3" points="36.076 106.45 15.36 223.685 18.955 223.685 48.349 107.763 36.076 106.45"/><polygon class="cls-3" points="230.636 106.45 251.352 223.685 247.757 223.685 218.363 107.763 230.636 106.45"/><rect class="cls-11" x="0.531" y="101.238" width="259.277" height="8.332" rx="1.294" ry="1.294"/><rect class="cls-4" x="62.051" y="98.01" width="29.777" height="3.905"/><path class="cls-4" d="M142.706,102.415H81.414l14.447-37.4a2.331,2.331,0,0,1,2.174-1.491H154.33A2.331,2.331,0,0,1,156.5,66.7Z" transform="translate(0 -0.5)"/><circle class="cls-1" cx="119.571" cy="82.471" r="3.821"/><g id="_Group_" data-name="&lt;Group&gt;"><g id="_Group_2" data-name="&lt;Group&gt;"><g id="_Group_3" data-name="&lt;Group&gt;"><g id="_Group_4" data-name="&lt;Group&gt;"><path id="_Path_" data-name="&lt;Path&gt;" class="cls-12" d="M162.1,93.3h-3.229a5.324,5.324,0,1,1,0-10.649h2.075v2.256h-2.075a3.068,3.068,0,1,0,0,6.136H162.1V93.3Z" transform="translate(0 -0.5)"/></g></g></g><g id="_Group_5" data-name="&lt;Group&gt;"><g id="_Group_6" data-name="&lt;Group&gt;"><path id="_Path_2" data-name="&lt;Path&gt;" class="cls-12" d="M179.606,80.88H159.978v5.968A16.916,16.916,0,0,0,164.446,98.3h0v2.979h10.694V98.3h0a16.918,16.918,0,0,0,4.467-11.454V80.88Z" transform="translate(0 -0.5)"/></g></g><g id="_Group_7" data-name="&lt;Group&gt;" class="cls-13"><g id="_Group_8" data-name="&lt;Group&gt;"><path id="_Path_3" data-name="&lt;Path&gt;" class="cls-7" d="M175.569,80.88v5.968A16.916,16.916,0,0,1,171.1,98.3h0v2.979h2.307V98.3h0a16.917,16.917,0,0,0,4.467-11.453V80.88h-2.307Z" transform="translate(0 -0.5)"/></g></g></g><g id="_Group_9" data-name="&lt;Group&gt;"><g id="_Group_10" data-name="&lt;Group&gt;"><g id="_Group_11" data-name="&lt;Group&gt;"><polygon id="_Path_4" data-name="&lt;Path&gt;" class="cls-4" points="220.68 101.572 224.115 101.572 220.68 86.892 207.993 101.572 220.68 101.572"/></g></g><g id="_Group_12" data-name="&lt;Group&gt;"><g id="_Group_13" data-name="&lt;Group&gt;"><polygon id="_Path_5" data-name="&lt;Path&gt;" class="cls-14" points="216.812 101.572 197.066 101.572 205.498 74.255 225.244 74.255 216.812 101.572"/></g></g><g id="_Group_14" data-name="&lt;Group&gt;"><g id="_Group_15" data-name="&lt;Group&gt;"><polygon id="_Path_6" data-name="&lt;Path&gt;" class="cls-4" points="214.704 101.572 194.958 101.572 203.39 74.255 223.136 74.255 214.704 101.572"/></g></g><g id="_Group_16" data-name="&lt;Group&gt;"><g id="_Group_17" data-name="&lt;Group&gt;"><polygon id="_Path_7" data-name="&lt;Path&gt;" class="cls-15" points="213.221 97.991 198.652 97.991 204.873 77.836 219.443 77.836 213.221 97.991"/></g></g><g id="_Group_18" data-name="&lt;Group&gt;" class="cls-16"><g id="_Group_19" data-name="&lt;Group&gt;"><polygon id="_Path_8" data-name="&lt;Path&gt;" class="cls-7" points="199.705 97.464 205.765 77.836 204.873 77.836 198.652 97.991 213.221 97.991 213.383 97.464 199.705 97.464"/></g></g></g><g id="_Group_20" data-name="&lt;Group&gt;"><rect id="_Rectangle_" data-name="&lt;Rectangle&gt;" class="cls-7" x="132.865" y="15.192" width="22.889" height="22.889" rx="3.248" ry="3.248"/><path id="_Path_9" data-name="&lt;Path&gt;" class="cls-6" d="M152.4,15.692H136.224a3.359,3.359,0,0,0-3.359,3.359v3.51h22.889v-3.51A3.358,3.358,0,0,0,152.4,15.692Z" transform="translate(0 -0.5)"/><g id="_Group_21" data-name="&lt;Group&gt;"><path id="_Compound_Path_" data-name="&lt;Compound Path&gt;" class="cls-17" d="M141.713,29.09a1.319,1.319,0,0,0,.276-0.756,0.838,0.838,0,0,0-.239-0.61,0.825,0.825,0,0,0-.615-0.245,1.673,1.673,0,0,0-1.3.979l-1.3-.771a4.031,4.031,0,0,1,1.12-1.2,2.743,2.743,0,0,1,1.553-.406,2.5,2.5,0,0,1,1.657.6,2.017,2.017,0,0,1,.714,1.631,2.194,2.194,0,0,1-.287,1.079,7.076,7.076,0,0,1-1.058,1.318l-1.313,1.366h2.877v1.459h-5.138V32.326l2.137-2.188A9.368,9.368,0,0,0,141.713,29.09Z" transform="translate(0 -0.5)"/><path id="_Compound_Path_2" data-name="&lt;Compound Path&gt;" class="cls-17" d="M149.629,26.25v1.407h-2.876v1.22a2.644,2.644,0,0,1,.74-0.094,2.742,2.742,0,0,1,1.814.636,2.12,2.12,0,0,1,.761,1.714,2.287,2.287,0,0,1-.787,1.783,2.812,2.812,0,0,1-1.944.7,3.193,3.193,0,0,1-2.47-1.094l0.855-1.188q0.094,0.093.25,0.229a3.415,3.415,0,0,0,.573.36,1.746,1.746,0,0,0,.834.224,1.175,1.175,0,0,0,.74-0.25,0.879,0.879,0,0,0,.323-0.74,0.894,0.894,0,0,0-.349-0.756,1.449,1.449,0,0,0-.9-0.265,2.775,2.775,0,0,0-1.282.4l-0.685-.019,0.007-4.265h4.4Z" transform="translate(0 -0.5)"/></g></g><rect class="cls-18" x="169.792" width="37.552" height="46.742" rx="0.604" ry="0.604"/><rect class="cls-7" x="172.856" y="24.473" width="31.424" height="2.643"/><rect class="cls-7" x="172.856" y="30.664" width="31.424" height="2.643"/><rect class="cls-7" x="172.856" y="36.855" width="31.424" height="2.643"/><path class="cls-7" d="M194.795,14.446l-4.317-1.47V11.706l0.239-.152a1.53,1.53,0,0,0,.818-1.245l0.14-1.74a0.885,0.885,0,0,0,.594-0.634L192.3,7.8a0.582,0.582,0,0,0-.507-0.715l0.056-.7a3.266,3.266,0,0,0-6.532,0l0.056,0.7h-0.057a0.584,0.584,0,0,0-.568.721l0.032,0.131a0.886,0.886,0,0,0,.714.665l0.137,1.71a1.53,1.53,0,0,0,.818,1.245l0.208,0.137v1.285l-4.317,1.47a0.779,0.779,0,0,0-.528.737v5.008h13.509V15.183A0.779,0.779,0,0,0,194.795,14.446Z" transform="translate(0 -0.5)"/></svg>