<svg id="Layer_3" data-name="Layer 3" xmlns="http://www.w3.org/2000/svg" viewBox="0 0 1597.183 1289.891"><defs><style>.cls-1{fill:#f3f7fb;}.cls-2{fill:#ff9b21;}.cls-3{fill:#a6dadd;}.cls-4{fill:#fff;}.cls-5{fill:#e8fcfc;}.cls-6{fill:#cea282;}.cls-7{fill:#b78b6e;}.cls-8{fill:#1a2e35;}.cls-9{fill:#375a64;}.cls-10{fill:#fff6ee;}.cls-11{fill:#ff4130;}.cls-12{fill:#ffefee;}.cls-13{fill:#c4a58c;}.cls-14{fill:#af907b;}.cls-15{fill:#66adaf;}.cls-16{fill:#549e9e;}.cls-17{fill:#b28a65;}.cls-18{fill:#e7e6e7;}.cls-19{fill:#191c3c;}.cls-20{fill:#c1c1c1;}.cls-21{fill:#2b44ff;}.cls-22{fill:#2f3676;}.cls-23{fill:#181845;}.cls-24{fill:#231f20;opacity:0.15;}</style></defs><title>header</title><path class="cls-1" d="M126.753,739.117c-35.709,198.139,2.013,395.01,158.53,495.407,164.35,105.421,304.513-40.286,520.025,8.6,196.863,44.655,467.462,178.183,691.48-82.18,113.341-131.734,159.555-362.717,185.525-536.072,17.192-114.762-4.286-340.794-68.734-436.162-122.112-180.7-273.233-98.4-455.651-65.683-154.113,27.643-205.147,13.1-325.779-5.866-95.33-14.988-247.889-44.709-341.606-20.594C294.138,147.117,173.45,480.019,126.753,739.117Z" transform="translate(-90.817 -27.301)"/><path class="cls-2" d="M1075.742,607.813l-12.348,2-33.032-33.2-3.99-24.654s-19.28,1.916-11.816,33.833,3.711,24.093,3.711,24.093-40.511,6.716-43.308,10.782c-2.036,2.956,3.372,43.4,6.482,65.306,1.566,11.028,9.963,20.161,20.608,21.1a17.882,17.882,0,0,0,4.457-.118c10.113-1.636,60.436-18.215,60.436-18.215l21.335-3.452Z" transform="translate(-90.817 -27.301)"/><polygon class="cls-2" points="1019.189 568.022 1025.261 653.726 1004.11 657.149 990.716 574.375 1019.189 568.022"/><rect class="cls-3" x="186.264" y="65.448" width="786.991" height="314.443" rx="25.431" ry="25.431"/><polygon class="cls-4" points="279.807 127.54 288.215 144.577 307.016 147.309 293.412 160.569 296.624 179.294 279.807 170.453 262.992 179.294 266.203 160.569 252.599 147.309 271.4 144.577 279.807 127.54"/><polygon class="cls-4" points="342.014 127.54 350.423 144.577 369.223 147.309 355.619 160.569 358.831 179.294 342.014 170.453 325.199 179.294 328.411 160.569 314.806 147.309 333.607 144.577 342.014 127.54"/><polygon class="cls-4" points="404.222 127.54 412.63 144.577 431.43 147.309 417.826 160.569 421.038 179.294 404.222 170.453 387.406 179.294 390.618 160.569 377.013 147.309 395.813 144.577 404.222 127.54"/><polygon class="cls-4" points="466.429 127.54 474.837 144.577 493.638 147.309 480.034 160.569 483.244 179.294 466.429 170.453 449.613 179.294 452.825 160.569 439.22 147.309 458.021 144.577 466.429 127.54"/><polygon class="cls-4" points="528.636 127.54 537.044 144.577 555.845 147.309 542.24 160.569 545.452 179.294 528.636 170.453 511.821 179.294 515.032 160.569 501.428 147.309 520.228 144.577 528.636 127.54"/><circle class="cls-5" cx="819.767" cy="238.316" r="106.236"/><path class="cls-6" d="M857.417,192.534l8.317,133.279a39.09,39.09,0,0,0,39.015,36.655h0a39.094,39.094,0,0,0,39.09-39.1h0v-0.294c-0.123-16.284-.3-31.3-0.3-31.3s30.626-4.762,31-35.381c0.177-14.513-1.842-44.141-4.019-71.294a58.729,58.729,0,0,0-58.555-54.015h-1.4A56.669,56.669,0,0,0,857.3,190.965h0Q857.35,191.753,857.417,192.534Z" transform="translate(-90.817 -27.301)"/><path class="cls-7" d="M943.59,291.336s-19.351,1.573-39.919-11.345c0,0,9.436,22.036,39.99,19.278Z" transform="translate(-90.817 -27.301)"/><path class="cls-8" d="M963.347,204.713c-0.542.57-3.855-1.881-8.561-1.869-4.7-.055-8.153,2.365-8.664,1.79-0.251-.255.3-1.284,1.8-2.379a11.994,11.994,0,0,1,6.936-2.138,11.517,11.517,0,0,1,6.813,2.2C963.125,203.426,963.615,204.458,963.347,204.713Z" transform="translate(-90.817 -27.301)"/><path class="cls-8" d="M917.565,204.713c-0.543.57-3.86-1.881-8.562-1.868-4.7-.055-8.154,2.365-8.664,1.789-0.25-.255.3-1.283,1.806-2.379a11.993,11.993,0,0,1,6.935-2.138,11.53,11.53,0,0,1,6.814,2.2C917.343,203.426,917.83,204.458,917.565,204.713Z" transform="translate(-90.817 -27.301)"/><path class="cls-8" d="M934.639,234.314c-0.022-.266,2.9-0.773,7.643-1.379,1.2-.124,2.339-0.363,2.541-1.183,0.284-.868-0.219-2.163-0.8-3.562q-1.695-4.361-3.554-9.149c-4.934-13.026-8.506-23.738-7.982-23.932s4.953,10.207,9.888,23.238q1.781,4.819,3.4,9.2c0.454,1.366,1.236,2.914.621,4.716a3.016,3.016,0,0,1-1.976,1.757,8.182,8.182,0,0,1-2.04.284C937.618,234.56,934.661,234.582,934.639,234.314Z" transform="translate(-90.817 -27.301)"/><path class="cls-8" d="M918.779,180.978c-0.465,1.279-5.162.673-10.682,1.339-5.534.554-9.987,2.17-10.719,1.024-0.326-.549.45-1.753,2.25-2.992a18.714,18.714,0,0,1,16.3-1.8C917.964,179.365,918.979,180.37,918.779,180.978Z" transform="translate(-90.817 -27.301)"/><path class="cls-8" d="M962.087,184.921c-0.827,1.064-4.068-.042-7.967-0.089-3.9-.189-7.2.718-7.958-0.4-0.333-.543.186-1.613,1.629-2.624a11.536,11.536,0,0,1,12.835.4C962,183.3,962.452,184.4,962.087,184.921Z" transform="translate(-90.817 -27.301)"/><path class="cls-8" d="M890.662,158.958l-0.168.133a24.086,24.086,0,0,0-8.952,15.576c-0.03.216-.059,0.423-0.089,0.621-1.2,8.733-.981,17.618-2.263,26.342s-4.3,17.6-10.752,23.6c-2.652,2.473-7.344,4.174-9.525,1.276a7.47,7.47,0,0,1-1.09-4c-1.633-21.088-7.392-39.8-7.353-61.848a18.587,18.587,0,0,1,7.716-15.13c4.617-3.308,10.255-6.741,15.384-4.312,5.144,2.436,11.779,12.036,15.756,16.106" transform="translate(-90.817 -27.301)"/><path class="cls-6" d="M867.74,206.385c-0.522-.226-21.039-6.223-20.37,14.712s21.547,15.944,21.565,15.344S867.74,206.385,867.74,206.385Z" transform="translate(-90.817 -27.301)"/><path class="cls-7" d="M862.287,228.715a6.278,6.278,0,0,0-.964.569,3.649,3.649,0,0,1-2.724.144c-2.238-.741-4.212-4.193-4.435-7.962a12.041,12.041,0,0,1,.853-5.254,4.214,4.214,0,0,1,2.654-2.887,1.857,1.857,0,0,1,2.185.93,10.137,10.137,0,0,1,.292,1.031,1.033,1.033,0,0,0,.242-1.225,2.332,2.332,0,0,0-.866-1.285,2.759,2.759,0,0,0-2.034-.468c-1.611.163-3.016,1.695-3.706,3.37a12.387,12.387,0,0,0-1.078,5.875c0.266,4.214,2.555,8.092,5.609,8.869a3.9,3.9,0,0,0,3.317-.66A1.264,1.264,0,0,0,862.287,228.715Z" transform="translate(-90.817 -27.301)"/><path class="cls-8" d="M872.863,144.452c-5.154-8.374,8.967-20.4,19.3-23.657s23.941,1.778,34.223,5.189c6.488,2.152,12.949,5.154,19.779,4.872,4.579-.189,8.949-1.854,13.27-3.382s8.82-2.955,13.393-2.644,9.281,2.744,11.017,6.987-0.751,10.054-5.291,10.686c5.793-3.184,14.175,1,15.116,7.539s-5.917,12.919-12.375,11.507c2.977-2.255,7.539,1.471,7.173,5.188s-3.738,6.421-7.158,7.924c-8.729,3.834-18.908,2.61-27.944-.431s-17.416-7.778-26.373-11.043-23.962-9.126-32.953-5.955c-6.62,2.334-11.227,10.308-14.966,8.549-3.613-1.7-5.9-5.486-6.625-9.413s-0.156-7.965.412-11.918" transform="translate(-90.817 -27.301)"/><path class="cls-9" d="M981.083,141.928c-0.177-.1-1.079,1.549-3.328,3.991a28.866,28.866,0,0,1-11.631,7.488,26.519,26.519,0,0,1-19.963-.807c-7.121-3.187-13.215-9.571-20.222-15.585-7-6.066-15.255-10.555-23.53-11.3-8.225-.783-15.825,2.232-20.018,6.931a18.271,18.271,0,0,0-4.749,13.532,14.22,14.22,0,0,0,.9,3.848,3.37,3.37,0,0,0,.674,1.2c0.193-.066-0.68-1.788-0.775-5.089a18,18,0,0,1,5.019-12.5c3.982-4.2,11.08-6.864,18.762-6.031,7.716,0.8,15.548,5.061,22.38,10.985,6.881,5.879,13.161,12.433,20.781,15.745a28.471,28.471,0,0,0,32.983-7.894,19.526,19.526,0,0,0,2.183-3.262A3.442,3.442,0,0,0,981.083,141.928Z" transform="translate(-90.817 -27.301)"/><path class="cls-9" d="M862.41,205.475c0.076,0.071.9-.576,1.693-2.238a14.085,14.085,0,0,0,1.044-7.589c-0.464-6.741-6.428-13.983-7.184-23.3a21.051,21.051,0,0,1,2.317-12.5,16,16,0,0,1,7.78-6.72,13.635,13.635,0,0,1,6.989-.951c1.685,0.266,2.586.66,2.661,0.493,0.05-.089-0.741-0.74-2.5-1.281a13.033,13.033,0,0,0-7.664.366,16.884,16.884,0,0,0-8.915,7.124,22.2,22.2,0,0,0-2.734,13.659,38.1,38.1,0,0,0,4.037,13.194c1.793,3.754,3.29,7.115,3.76,10.111C864.8,201.987,862.1,205.376,862.41,205.475Z" transform="translate(-90.817 -27.301)"/><path class="cls-4" d="M918.769,240.061c0.852,4.585,2.927,9.083,6.5,12.075s8.8,4.215,13.074,2.342c3.736-1.64,6.175-5.233,8.412-8.641Z" transform="translate(-90.817 -27.301)"/><path class="cls-4" d="M718.188,265.189H351.617a4.781,4.781,0,0,1-4.767-4.766h0a4.18,4.18,0,0,1,4.767-4.324H718.188a4.18,4.18,0,0,1,4.767,4.324h0A4.781,4.781,0,0,1,718.188,265.189Z" transform="translate(-90.817 -27.301)"/><path class="cls-4" d="M718.188,310.464H351.617a4.781,4.781,0,0,1-4.767-4.767h0a4.18,4.18,0,0,1,4.767-4.324H718.188a4.18,4.18,0,0,1,4.767,4.324h0A4.781,4.781,0,0,1,718.188,310.464Z" transform="translate(-90.817 -27.301)"/><path class="cls-4" d="M472.294,356.973H348.461c-0.887,0-1.611-2.146-1.611-4.767h0c0-2.623.725-4.767,1.611-4.324H472.294c0.887-.443,1.611,1.7,1.611,4.324h0C473.905,354.827,473.18,356.973,472.294,356.973Z" transform="translate(-90.817 -27.301)"/><path class="cls-2" d="M116.472,474.183H859.055A25.439,25.439,0,0,1,884.709,499.4V760.781A25.439,25.439,0,0,1,859.055,786H116.472a25.439,25.439,0,0,1-25.654-25.219V499.4A25.439,25.439,0,0,1,116.472,474.183Z" transform="translate(-90.817 -27.301)"/><polygon class="cls-4" points="92.761 510.19 101.099 527.083 119.743 529.793 106.253 542.943 109.437 561.511 92.761 552.745 76.086 561.511 79.271 542.943 65.78 529.793 84.424 527.083 92.761 510.19"/><polygon class="cls-4" points="154.449 510.19 162.787 527.083 181.43 529.793 167.94 542.943 171.125 561.511 154.449 552.745 137.774 561.511 140.959 542.943 127.468 529.793 146.112 527.083 154.449 510.19"/><polygon class="cls-4" points="216.137 510.19 224.475 527.083 243.118 529.793 229.628 542.943 232.813 561.511 216.137 552.745 199.462 561.511 202.647 542.943 189.155 529.793 207.799 527.083 216.137 510.19"/><polygon class="cls-4" points="277.824 510.19 286.162 527.083 304.806 529.793 291.316 542.943 294.499 561.511 277.824 552.745 261.149 561.511 264.334 542.943 250.843 529.793 269.486 527.083 277.824 510.19"/><polygon class="cls-4" points="339.512 510.19 347.85 527.083 366.493 529.793 353.002 542.943 356.187 561.511 339.512 552.745 322.837 561.511 326.022 542.943 312.532 529.793 331.174 527.083 339.512 510.19"/><circle class="cls-10" cx="628.211" cy="620.041" r="105.348"/><path class="cls-8" d="M827.515,634.357c-2.88-2.305-6.954-2.617-9.9-4.837-6.069-4.568-4.322-13.855-5.629-21.336-1.42-8.146-6.96-14.841-11.351-21.847s-9.481-17.143-6.232-24.746L735.107,670.313h93s2.831-17.1,3.328-22.091S831.428,637.49,827.515,634.357Z" transform="translate(-90.817 -27.301)"/><path class="cls-8" d="M704.287,526.4c2.865-8.749,12.411-13.694,21.549-14.795s13.623,2.632,22.6.616c12.342-2.773,19.526-6.96,27.684-5.629,7.366,1.2,16.724,3.5,23.375,11.2,4.878,5.648,5.052,18.871,3.021,26.053-1.854,6.557-6.948,11.919-8.317,18.6-1.266,6.187.85,12.489,2.218,18.652,4.106,18.512.928,39.245-11.346,53.7s-34.354,20.845-51.3,12.344" transform="translate(-90.817 -27.301)"/><path class="cls-6" d="M754.622,706.24l-0.5-27.052s26.878-3.974,33.051-38.84c3.07-17.339,2.7-45.864,1.649-69.2-0.949-21-23.177-42.348-44.118-40.509l-68.015,11.69,0.022,11.29,1.878,153.782a38.022,38.022,0,0,0,38.019,37.556h0A38.022,38.022,0,0,0,754.63,706.94h0Q754.628,706.59,754.622,706.24Z" transform="translate(-90.817 -27.301)"/><path class="cls-8" d="M777.184,592.424a4.486,4.486,0,0,1-4.4,4.447,4.289,4.289,0,0,1-4.545-4.016h0a0.743,0.743,0,0,0-.005-0.108,4.486,4.486,0,0,1,4.4-4.45,4.293,4.293,0,0,1,4.552,4.018Q777.184,592.369,777.184,592.424Z" transform="translate(-90.817 -27.301)"/><path class="cls-8" d="M782.373,585.878c-0.566.574-3.919-2-8.745-2.073-4.819-.142-8.4,2.277-8.917,1.677-0.252-.264.332-1.311,1.895-2.406a12.3,12.3,0,0,1,7.151-2.066,11.813,11.813,0,0,1,6.948,2.38C782.168,584.551,782.652,585.614,782.373,585.878Z" transform="translate(-90.817 -27.301)"/><path class="cls-8" d="M730.581,591.612a4.486,4.486,0,0,1-4.4,4.447,4.289,4.289,0,0,1-4.545-4.016h0q0-.055-0.005-0.108a4.486,4.486,0,0,1,4.4-4.45,4.292,4.292,0,0,1,4.551,4.017Q730.579,591.557,730.581,591.612Z" transform="translate(-90.817 -27.301)"/><path class="cls-8" d="M734.927,585.933c-0.567.574-3.924-2-8.746-2.072-4.818-.142-8.4,2.277-8.918,1.676-0.251-.264.328-1.31,1.9-2.406a12.3,12.3,0,0,1,7.151-2.066,11.827,11.827,0,0,1,6.948,2.379C734.718,584.609,735.2,585.676,734.927,585.933Z" transform="translate(-90.817 -27.301)"/><path class="cls-8" d="M751.8,622.026c-0.018-.274,2.99-0.739,7.863-1.274,1.231-.106,2.4-0.33,2.627-1.167,0.306-.885-0.186-2.223-0.757-3.667l-3.478-9.447c-4.822-13.449-8.29-24.5-7.748-24.687s4.894,10.554,9.717,24.006q1.738,4.973,3.322,9.5c0.44,1.407,1.216,3.011.554,4.847a3.1,3.1,0,0,1-2.059,1.766,8.381,8.381,0,0,1-2.1.253C754.851,622.335,751.816,622.3,751.8,622.026Z" transform="translate(-90.817 -27.301)"/><path class="cls-7" d="M754.122,679.188a88.962,88.962,0,0,1-46.6-13.324s10.933,24.221,45.985,21.571Z" transform="translate(-90.817 -27.301)"/><path class="cls-7" d="M749.556,633.621a8.694,8.694,0,0,0-7.74-3.368,7.938,7.938,0,0,0-5.534,2.843,5.031,5.031,0,0,0-.485,5.745c1.269,1.854,3.983,2.325,6.3,1.712a18.278,18.278,0,0,0,6.232-3.572,5.358,5.358,0,0,0,1.407-1.4,1.615,1.615,0,0,0,.025-1.8" transform="translate(-90.817 -27.301)"/><path class="cls-8" d="M737.543,625.114c0.785-.033.7,5.206,5.12,9s10,3.319,10.027,4.054c0.068,0.329-1.261.995-3.618,1.016a13.041,13.041,0,0,1-8.378-3.086,11.362,11.362,0,0,1-3.958-7.544C736.58,626.36,737.186,625.078,737.543,625.114Z" transform="translate(-90.817 -27.301)"/><path class="cls-8" d="M736.509,567.045c-0.5,1.3-5.306.6-10.979,1.178-5.685.469-10.28,2.044-11.01,0.854-0.325-.569.493-1.788,2.361-3.026a19.194,19.194,0,0,1,16.752-1.548C735.7,565.377,736.725,566.426,736.509,567.045Z" transform="translate(-90.817 -27.301)"/><path class="cls-8" d="M780.848,571.879c-0.869,1.08-4.173-.116-8.168-0.24-3.991-.264-7.4.6-8.154-0.555-0.331-.563.221-1.652,1.719-2.662a11.831,11.831,0,0,1,13.151.64C780.79,570.213,781.23,571.351,780.848,571.879Z" transform="translate(-90.817 -27.301)"/><path class="cls-8" d="M717.079,513.831a48.714,48.714,0,0,1-15.669,67.086h0q-0.748.464-1.512,0.9c-3.89,2.226-8.305,4.109-10.675,7.916-3.012,4.837-1.724,11.033-1.168,16.7a58.292,58.292,0,0,1-13.4,42.866c-6.664-12.985-13.4-26.174-16.331-40.472-1.48-7.227-1.983-14.715-4.608-21.609-1.566-4.11-3.859-7.929-5.2-12.116-2.452-7.641-1.556-16.046,1.029-23.644a55.85,55.85,0,0,1,70.436-35.033" transform="translate(-90.817 -27.301)"/><path class="cls-8" d="M656.272,538.074c-15.744,23.031-8.075,38.03-14.181,49.826-4.427,8.552-14.706,11.969-22,18.249-9.926,8.546-13.971,22.409-13.6,35.5s4.595,25.742,8.774,38.16l84.627,0.417c6.545-20.628-9.828-42.981-4.568-63.974,1.8-7.171,6.069-13.774,6.312-21.162,0.163-4.914-1.487-9.675-2.58-14.471a65.349,65.349,0,0,1,3.925-40.634" transform="translate(-90.817 -27.301)"/><path class="cls-9" d="M802.6,527.933c-0.107.055-.576-1.106-1.935-2.854a19.758,19.758,0,0,0-7.347-5.6,29.631,29.631,0,0,0-13.483-2.463c-5.214.226-10.818,1.813-16.535,3.813s-11.15,4.165-16.326,5.423a42.606,42.606,0,0,1-14.024,1.248,24.685,24.685,0,0,1-9.131-2.589,16.709,16.709,0,0,1-2.192-1.373,3.236,3.236,0,0,1-.7-0.571c0.062-.088,1.048.669,3.051,1.616a25.96,25.96,0,0,0,9.026,2.255,43.415,43.415,0,0,0,13.759-1.425c5.082-1.281,10.466-3.446,16.225-5.47s11.446-3.606,16.813-3.791a29.651,29.651,0,0,1,13.8,2.727,19.21,19.21,0,0,1,7.355,5.981,13.71,13.71,0,0,1,1.3,2.238A3.244,3.244,0,0,1,802.6,527.933Z" transform="translate(-90.817 -27.301)"/><path class="cls-9" d="M790.357,587.151a3.715,3.715,0,0,1,.8.548,6.35,6.35,0,0,1,.88.779,8.957,8.957,0,0,1,1.082,1.194,19.656,19.656,0,0,1,3.751,9.457,45.771,45.771,0,0,1,.509,7.045c0.011,2.541-.139,5.226-0.082,8.045a37.043,37.043,0,0,0,1.008,8.707,16.008,16.008,0,0,0,4.508,7.965c2.345,2.157,5.3,3.446,7.971,5.049a16.266,16.266,0,0,1,6.462,6.289c2.775,5.218,2.491,10.785,1.546,14.944a48.99,48.99,0,0,1-3.435,9.6c-0.5,1.091-.916,1.927-1.2,2.491a3.737,3.737,0,0,1-.483.838,3.787,3.787,0,0,1,.31-0.916l1.039-2.559a55.172,55.172,0,0,0,3.121-9.595,24.667,24.667,0,0,0,.492-6.874,18.267,18.267,0,0,0-2.145-7.512,15.474,15.474,0,0,0-6.174-5.916c-2.608-1.563-5.629-2.851-8.138-5.15a16.823,16.823,0,0,1-4.764-8.427,37.217,37.217,0,0,1-.982-8.93c-0.033-2.853.146-5.555,0.168-8.057a47.014,47.014,0,0,0-.387-6.948,20.1,20.1,0,0,0-3.384-9.333A31.181,31.181,0,0,0,790.357,587.151Z" transform="translate(-90.817 -27.301)"/><path class="cls-9" d="M646.333,676.656a1.992,1.992,0,0,1-.244-0.44c-0.144-.3-0.364-0.737-0.616-1.328a53.985,53.985,0,0,1-2.023-5.266,49.666,49.666,0,0,1-2.032-8.7,39.378,39.378,0,0,1,.1-11.839,32.117,32.117,0,0,1,5.371-13.292c3.019-4.318,7.652-7.549,12.16-11.082a38.779,38.779,0,0,0,6.341-6.032,20.259,20.259,0,0,0,3.879-8.1c1.4-6.055.456-12.62-.9-19.086-1.407-6.484-2.953-12.94-2.679-19.343a24.747,24.747,0,0,1,2.05-9.147,23.42,23.42,0,0,1,5.253-7.291,45.133,45.133,0,0,1,14.052-8.582c4.764-1.979,9.288-3.537,13.255-5.329a42.218,42.218,0,0,0,10.017-6,26.446,26.446,0,0,0,5.8-6.6,19.165,19.165,0,0,0,2.215-5.107c0.334-1.231.417-1.91,0.469-1.9a10.66,10.66,0,0,1-.285,1.947,18.064,18.064,0,0,1-2.083,5.248,26.247,26.247,0,0,1-5.782,6.813,42.111,42.111,0,0,1-10.081,6.2c-3.985,1.847-8.511,3.446-13.226,5.442a44.63,44.63,0,0,0-13.755,8.488,22.6,22.6,0,0,0-5.034,7.036,23.891,23.891,0,0,0-1.949,8.817c-0.257,6.226,1.262,12.6,2.678,19.109,1.36,6.509,2.34,13.193.88,19.489a21.128,21.128,0,0,1-4.072,8.443,39.408,39.408,0,0,1-6.509,6.157c-4.565,3.546-9.116,6.694-12.065,10.859a31.619,31.619,0,0,0-5.348,12.95,44.175,44.175,0,0,0,1.625,20.317c0.7,2.333,1.379,4.106,1.847,5.3l0.533,1.362A1.978,1.978,0,0,1,646.333,676.656Z" transform="translate(-90.817 -27.301)"/><path class="cls-9" d="M717.877,522.223a2.613,2.613,0,0,1-.574-0.023l-1.671-.159c-1.471-.121-3.638-0.337-6.436-0.451a70.852,70.852,0,0,0-23.414,2.574,46.4,46.4,0,0,0-14.476,7.264,37.05,37.05,0,0,0-11.67,14.258c-2.758,5.981-3.3,13.036-3.2,20.2,0.062,7.173.695,14.744-.77,22.377a31.517,31.517,0,0,1-3.977,10.73,25.737,25.737,0,0,1-7.833,7.888c-6.081,4.035-12.729,6.465-17.772,10.7a27.241,27.241,0,0,0-9.006,15.809,38.015,38.015,0,0,0,.361,16.121,54.62,54.62,0,0,0,4.789,12.547,90.291,90.291,0,0,0,5.26,8.728c1.571,2.319,2.861,4.073,3.727,5.268L632.2,677.4a2.638,2.638,0,0,1,.312.483,2.6,2.6,0,0,1-.388-0.423l-1.063-1.3c-0.916-1.16-2.255-2.88-3.877-5.175a85.139,85.139,0,0,1-5.417-8.692,54.318,54.318,0,0,1-4.97-12.635,38.494,38.494,0,0,1-.478-16.43,27.979,27.979,0,0,1,9.213-16.321c5.189-4.369,11.88-6.83,17.812-10.794A24.852,24.852,0,0,0,650.9,598.5a30.655,30.655,0,0,0,3.85-10.415c1.437-7.476.826-14.97,0.772-22.192-0.088-7.2.471-14.408,3.332-20.559A37.716,37.716,0,0,1,670.849,530.8a46.762,46.762,0,0,1,14.752-7.276,69.152,69.152,0,0,1,23.623-2.3c2.807,0.171,4.972.446,6.439,0.628l1.663,0.252A2.626,2.626,0,0,1,717.877,522.223Z" transform="translate(-90.817 -27.301)"/><path class="cls-9" d="M673.272,680.339a21.789,21.789,0,0,0,5.541-4.016,23.334,23.334,0,0,0,4.457-6.631,31,31,0,0,0,2.526-10.279,41.184,41.184,0,0,0-1.28-12.789,128.3,128.3,0,0,0-4.574-14.167,111.965,111.965,0,0,1-4.911-15.817,39.015,39.015,0,0,1-.076-17.782,27.793,27.793,0,0,1,3.776-8.291,39.79,39.79,0,0,1,5.8-6.64c4.233-3.944,8.837-7.052,13-10.245a60.2,60.2,0,0,0,10.892-10.027,43.361,43.361,0,0,0,6.539-11.082,45.51,45.51,0,0,0,3.406-18.294c-0.011-1.109-.066-2.092-0.159-2.941-0.063-.852-0.133-1.573-0.23-2.149-0.069-.534-0.127-0.967-0.176-1.319a1.689,1.689,0,0,1-.027-0.456,32.45,32.45,0,0,1,.954,6.856,44.592,44.592,0,0,1-3.156,18.558,43.592,43.592,0,0,1-6.549,11.319,60.214,60.214,0,0,1-10.974,10.23c-4.169,3.225-8.747,6.344-12.9,10.23a39.069,39.069,0,0,0-5.657,6.485,26.941,26.941,0,0,0-3.643,8.011,38.282,38.282,0,0,0,.069,17.356,112.917,112.917,0,0,0,4.824,15.708,126.2,126.2,0,0,1,4.519,14.284,41.452,41.452,0,0,1,1.183,13.017,31.135,31.135,0,0,1-2.711,10.446,23.171,23.171,0,0,1-4.676,6.67,17.971,17.971,0,0,1-4.148,3.048l-1.222.551A1.63,1.63,0,0,1,673.272,680.339Z" transform="translate(-90.817 -27.301)"/><path class="cls-8" d="M721.5,537.278c8.947,6.265,18.858,12.813,29.755,12.039,6.469-.459,12.428-3.484,18.584-5.519s13.306-2.985,18.822.426c3.567-.3,5.234-5.142,3.657-8.356s-5.1-4.957-8.485-6.112c-19.592-6.675-39.129.889-61.156,2.32" transform="translate(-90.817 -27.301)"/><path class="cls-9" d="M801.775,543.016a10.066,10.066,0,0,0,.728-3.481,9.417,9.417,0,0,0-4.6-7.981,13.333,13.333,0,0,0-6.312-1.873,19.716,19.716,0,0,0-7.533,1.24c-5.189,1.741-10.1,5.47-16.052,7.984A39.464,39.464,0,0,1,759,541.551a41.624,41.624,0,0,1-8.719.638,42.439,42.439,0,0,1-14.452-2.873,38.084,38.084,0,0,1-8.736-4.731,26.612,26.612,0,0,1-2.1-1.695,3.53,3.53,0,0,1-.679-0.653c0.142-.238,3.926,3.559,11.751,6.456a43.1,43.1,0,0,0,14.238,2.629,41.632,41.632,0,0,0,8.538-.678,39.226,39.226,0,0,0,8.806-2.605c5.8-2.437,10.77-6.177,16.136-7.937a20.27,20.27,0,0,1,7.863-1.2,13.877,13.877,0,0,1,6.621,2.089,9.88,9.88,0,0,1,3.769,4.31,9.271,9.271,0,0,1,.838,4.24,6.964,6.964,0,0,1-.616,2.655A2.671,2.671,0,0,1,801.775,543.016Z" transform="translate(-90.817 -27.301)"/><path class="cls-4" d="M517.634,643.972H154.124a4.742,4.742,0,0,1-4.727-4.727h0a4.145,4.145,0,0,1,4.727-4.289h363.51a4.145,4.145,0,0,1,4.727,4.288h0A4.742,4.742,0,0,1,517.634,643.972Z" transform="translate(-90.817 -27.301)"/><path class="cls-4" d="M517.634,688.871H154.124a4.742,4.742,0,0,1-4.727-4.727h0a4.145,4.145,0,0,1,4.727-4.288h363.51a4.145,4.145,0,0,1,4.727,4.288h0A4.742,4.742,0,0,1,517.634,688.871Z" transform="translate(-90.817 -27.301)"/><path class="cls-4" d="M273.8,734.993H151c-0.88,0-1.6-2.128-1.6-4.727h0c0-2.6.719-4.727,1.6-4.288H273.8c0.88-.44,1.6,1.688,1.6,4.288h0C275.392,732.866,274.674,734.993,273.8,734.993Z" transform="translate(-90.817 -27.301)"/><path class="cls-11" d="M1101.114,1020.184l9.665-1.565,25.845,25.984,3.122,19.295s15.09-1.5,9.244-26.48-2.9-18.855-2.9-18.855,31.7-5.256,33.9-8.438c1.594-2.314-2.64-33.966-5.073-51.112-1.226-8.63-7.8-15.778-16.128-16.517a13.99,13.99,0,0,0-3.488.093c-7.912,1.281-47.3,14.255-47.3,14.255l-16.7,2.7Z" transform="translate(-90.817 -27.301)"/><polygon class="cls-11" points="983.485 1002.658 978.732 935.582 995.286 932.904 1005.768 997.686 983.485 1002.658"/><rect class="cls-11" x="137.299" y="834.149" width="772.243" height="308.55" rx="24.955" ry="24.955"/><polygon class="cls-4" points="229.088 895.078 237.339 911.795 255.787 914.476 242.438 927.488 245.59 945.862 229.088 937.187 212.588 945.862 215.739 927.488 202.39 914.476 220.839 911.795 229.088 895.078"/><polygon class="cls-4" points="290.13 895.078 298.38 911.795 316.829 914.476 303.48 927.488 306.631 945.862 290.13 937.187 273.63 945.862 276.781 927.488 263.431 914.476 281.88 911.795 290.13 895.078"/><polygon class="cls-4" points="351.171 895.078 359.422 911.795 377.87 914.476 364.521 927.488 367.673 945.862 351.171 937.187 334.671 945.862 337.822 927.488 324.473 914.476 342.921 911.795 351.171 895.078"/><polygon class="cls-4" points="412.213 895.078 420.463 911.795 438.912 914.476 425.563 927.488 428.713 945.862 412.213 937.187 395.713 945.862 398.864 927.488 385.514 914.476 403.962 911.795 412.213 895.078"/><polygon class="cls-4" points="473.254 895.078 481.505 911.795 499.953 914.476 486.603 927.488 489.755 945.862 473.254 937.187 456.754 945.862 459.905 927.488 446.557 914.476 465.004 911.795 473.254 895.078"/><circle class="cls-12" cx="758.929" cy="1003.778" r="104.245"/><path class="cls-13" d="M797.576,959.365l8.161,130.782a38.358,38.358,0,0,0,38.284,35.969h0a38.362,38.362,0,0,0,38.358-38.366h0v-0.289c-0.121-15.979-.292-30.712-0.292-30.712s30.052-4.673,30.422-34.718c0.174-14.241-1.808-43.314-3.943-69.958a57.628,57.628,0,0,0-57.458-53h-1.372a55.607,55.607,0,0,0-52.27,58.755h0Q797.51,958.6,797.576,959.365Z" transform="translate(-90.817 -27.301)"/><path class="cls-14" d="M882.134,1056.316s-18.989,1.544-39.171-11.132c0,0,9.259,21.623,39.241,18.917Z" transform="translate(-90.817 -27.301)"/><path class="cls-8" d="M901.521,971.316c-0.532.56-3.782-1.846-8.4-1.834-4.613-.054-8,2.321-8.5,1.756-0.246-.25.3-1.26,1.77-2.334a11.769,11.769,0,0,1,6.806-2.1,11.3,11.3,0,0,1,6.686,2.158C901.3,970.053,901.784,971.065,901.521,971.316Z" transform="translate(-90.817 -27.301)"/><path class="cls-8" d="M856.6,971.316c-0.533.56-3.788-1.846-8.4-1.833-4.613-.054-8,2.321-8.5,1.755-0.245-.25.291-1.259,1.772-2.334a11.768,11.768,0,0,1,6.8-2.1,11.314,11.314,0,0,1,6.687,2.158C856.379,970.053,856.857,971.065,856.6,971.316Z" transform="translate(-90.817 -27.301)"/><path class="cls-8" d="M873.351,1000.362c-0.022-.261,2.849-0.758,7.5-1.353,1.179-.122,2.3-0.356,2.493-1.161,0.279-.852-0.215-2.123-0.783-3.5q-1.663-4.279-3.487-8.977c-4.842-12.782-8.346-23.293-7.833-23.484s4.86,10.016,9.7,22.8q1.748,4.728,3.339,9.031c0.446,1.34,1.213,2.86.609,4.627a2.959,2.959,0,0,1-1.939,1.724,8.029,8.029,0,0,1-2,.279C876.274,1000.6,873.372,1000.625,873.351,1000.362Z" transform="translate(-90.817 -27.301)"/><path class="cls-8" d="M857.788,948.025c-0.456,1.255-5.065.661-10.482,1.314-5.431.544-9.8,2.13-10.518,1-0.32-.539.441-1.721,2.208-2.936a18.364,18.364,0,0,1,16-1.765C856.989,946.443,857.984,947.429,857.788,948.025Z" transform="translate(-90.817 -27.301)"/><path class="cls-8" d="M900.284,951.895c-0.812,1.044-3.992-.041-7.818-0.087-3.822-.185-7.063.7-7.808-0.393-0.326-.533.183-1.583,1.6-2.575a11.319,11.319,0,0,1,12.594.389C900.2,950.3,900.643,951.384,900.284,951.895Z" transform="translate(-90.817 -27.301)"/><path class="cls-8" d="M830.2,926.418l-0.165.131a23.635,23.635,0,0,0-8.784,15.284c-0.03.212-.057,0.415-0.087,0.609-1.176,8.569-.963,17.288-2.221,25.848s-4.224,17.265-10.551,23.162c-2.6,2.426-7.206,4.1-9.346,1.252a7.33,7.33,0,0,1-1.07-3.927c-1.6-20.693-7.253-39.05-7.215-60.689a18.238,18.238,0,0,1,7.572-14.847c4.531-3.246,10.063-6.614,15.1-4.231s11.558,11.81,15.461,15.8" transform="translate(-90.817 -27.301)"/><path class="cls-13" d="M807.705,972.957c-0.512-.222-20.645-6.106-19.989,14.436s21.144,15.645,21.161,15.056S807.705,972.957,807.705,972.957Z" transform="translate(-90.817 -27.301)"/><path class="cls-14" d="M802.354,994.869a6.161,6.161,0,0,0-.946.559,3.58,3.58,0,0,1-2.673.141c-2.2-.727-4.133-4.114-4.352-7.813a11.815,11.815,0,0,1,.837-5.156,4.135,4.135,0,0,1,2.6-2.833,1.822,1.822,0,0,1,2.144.913,9.947,9.947,0,0,1,.286,1.011,1.013,1.013,0,0,0,.238-1.2,2.288,2.288,0,0,0-.849-1.261,2.708,2.708,0,0,0-2-.46c-1.58.16-2.959,1.663-3.636,3.307a12.155,12.155,0,0,0-1.057,5.765c0.261,4.135,2.507,7.941,5.5,8.7a3.829,3.829,0,0,0,3.255-.648A1.24,1.24,0,0,0,802.354,994.869Z" transform="translate(-90.817 -27.301)"/><path class="cls-8" d="M812.732,912.184c-5.057-8.218,8.8-20.017,18.938-23.214s23.492,1.745,33.582,5.091c6.366,2.111,12.707,5.057,19.408,4.781,4.493-.185,8.782-1.819,13.022-3.319s8.654-2.9,13.142-2.594,9.107,2.693,10.81,6.856-0.737,9.866-5.191,10.486c5.685-3.124,13.909.981,14.833,7.4s-5.806,12.677-12.143,11.292c2.921-2.213,7.4,1.443,7.038,5.09s-3.668,6.3-7.023,7.775c-8.566,3.762-18.553,2.561-27.42-.423s-17.09-7.633-25.879-10.836-23.513-8.955-32.336-5.843c-6.5,2.291-11.017,10.115-14.686,8.389-3.546-1.669-5.792-5.383-6.5-9.237s-0.153-7.815.4-11.694" transform="translate(-90.817 -27.301)"/><path class="cls-9" d="M918.925,909.708c-0.174-.1-1.058,1.52-3.265,3.916a28.325,28.325,0,0,1-11.413,7.347,26.022,26.022,0,0,1-19.589-.792c-6.988-3.127-12.968-9.392-19.843-15.293-6.864-5.952-14.969-10.357-23.089-11.09-8.071-.768-15.528,2.191-19.643,6.8a17.929,17.929,0,0,0-4.66,13.278,13.954,13.954,0,0,0,.885,3.776,3.307,3.307,0,0,0,.661,1.174c0.19-.064-0.668-1.755-0.761-4.994a17.668,17.668,0,0,1,4.925-12.261c3.908-4.117,10.872-6.735,18.411-5.918,7.572,0.783,15.257,4.966,21.961,10.779,6.752,5.768,12.915,12.2,20.392,15.45a27.937,27.937,0,0,0,32.365-7.746,19.16,19.16,0,0,0,2.142-3.2A3.377,3.377,0,0,0,918.925,909.708Z" transform="translate(-90.817 -27.301)"/><path class="cls-9" d="M802.475,972.064c0.075,0.07.885-.565,1.661-2.2a13.821,13.821,0,0,0,1.024-7.446c-0.455-6.614-6.307-13.721-7.05-22.865a20.656,20.656,0,0,1,2.273-12.261,15.7,15.7,0,0,1,7.634-6.594,13.379,13.379,0,0,1,6.858-.933c1.654,0.261,2.538.648,2.611,0.484,0.049-.087-0.728-0.726-2.449-1.257a12.788,12.788,0,0,0-7.52.359,16.567,16.567,0,0,0-8.748,6.99,21.787,21.787,0,0,0-2.683,13.4,37.389,37.389,0,0,0,3.962,12.947c1.759,3.683,3.228,6.982,3.689,9.922C804.822,968.641,802.173,971.966,802.475,972.064Z" transform="translate(-90.817 -27.301)"/><path class="cls-4" d="M857.778,1006c0.836,4.5,2.872,8.913,6.379,11.849s8.639,4.136,12.829,2.3c3.666-1.609,6.059-5.135,8.254-8.479Z" transform="translate(-90.817 -27.301)"/><path class="cls-4" d="M660.956,1030.659h-359.7a4.692,4.692,0,0,1-4.678-4.676h0a4.1,4.1,0,0,1,4.678-4.243h359.7a4.1,4.1,0,0,1,4.678,4.243h0A4.692,4.692,0,0,1,660.956,1030.659Z" transform="translate(-90.817 -27.301)"/><path class="cls-4" d="M660.956,1075.085h-359.7a4.692,4.692,0,0,1-4.678-4.678h0a4.1,4.1,0,0,1,4.678-4.243h359.7a4.1,4.1,0,0,1,4.678,4.243h0A4.692,4.692,0,0,1,660.956,1075.085Z" transform="translate(-90.817 -27.301)"/><path class="cls-4" d="M419.67,1120.723H298.157c-0.87,0-1.58-2.105-1.58-4.678h0c0-2.574.711-4.678,1.58-4.243H419.67c0.87-.435,1.581,1.67,1.581,4.243h0C421.251,1118.617,420.54,1120.723,419.67,1120.723Z" transform="translate(-90.817 -27.301)"/><path class="cls-3" d="M1218.569,254.7a38.314,38.314,0,1,0-59.262,32.06v24.45H1201.2v-24.45A38.259,38.259,0,0,0,1218.569,254.7Z" transform="translate(-90.817 -27.301)"/><polygon id="_Path_" data-name="&lt;Path&gt;" class="cls-15" points="1113.099 285.612 1099.168 297.263 1078.434 297.263 1065.775 285.612 1065.775 267.307 1113.099 267.307 1113.099 285.612"/><rect id="_Rectangle_" data-name="&lt;Rectangle&gt;" class="cls-16" x="1063.716" y="268.979" width="51.338" height="3.512" rx="0.365" ry="0.365"/><rect id="_Rectangle_2" data-name="&lt;Rectangle&gt;" class="cls-16" x="1063.716" y="274.845" width="51.338" height="3.512" rx="0.365" ry="0.365"/><rect id="_Rectangle_3" data-name="&lt;Rectangle&gt;" class="cls-16" x="1063.716" y="280.71" width="51.338" height="3.511" rx="0.365" ry="0.365"/><path id="_Rectangle_4" data-name="&lt;Rectangle&gt;" class="cls-16" d="M1077.838,296.715h21.5a0,0,0,0,1,0,0v5.451a1.43,1.43,0,0,1-1.43,1.43h-18.637a1.43,1.43,0,0,1-1.43-1.43v-5.451A0,0,0,0,1,1077.838,296.715Z"/><polygon class="cls-4" points="1087.044 237.395 1077.233 227.586 1080.224 224.596 1087.044 231.413 1101.968 216.489 1104.959 219.48 1087.044 237.395"/><rect class="cls-17" x="1233.817" y="1203.379" width="36.922" height="56.213" transform="translate(2413.737 2435.67) rotate(180)"/><path class="cls-18" d="M1275.717,1245.114s2.118,23.813,8.5,43.414c0.83,2.552,2.9,4.542,2.9,7.225v20.716h-87.338v-11a23.557,23.557,0,0,1,4.658-14.02c7.431-10.056,29.527-30.851,26.062-46.332h45.22Z" transform="translate(-90.817 -27.301)"/><path class="cls-19" d="M1275.511,1245.113h0.206s-0.065.356-.1,0.564C1275.586,1245.5,1275.534,1245.293,1275.511,1245.113Z" transform="translate(-90.817 -27.301)"/><path class="cls-20" d="M1287.114,1301.534v14.935h-87.338v-11a23.271,23.271,0,0,1,.348-3.932h86.99Z" transform="translate(-90.817 -27.301)"/><rect class="cls-20" x="1236.72" y="1256.896" width="24.061" height="5.393" rx="0.271" ry="0.271" transform="translate(2406.685 2491.884) rotate(180)"/><rect class="cls-20" x="1233.817" y="1268.927" width="24.061" height="5.393" rx="0.271" ry="0.271" transform="translate(2400.877 2515.946) rotate(180)"/><rect class="cls-17" x="1473.996" y="1203.379" width="36.922" height="56.213" transform="translate(2894.096 2435.67) rotate(180)"/><path class="cls-21" d="M1410.115,725.37c-10.281,25.426-72.782,246.26-72.782,246.26L1281,1236.191h-55.018l28.385-300.224,20.743-318.783,119.263,14.192,21.569,59.058Z" transform="translate(-90.817 -27.301)"/><polygon class="cls-21" points="1444.288 649.927 1440.843 916.308 1427.742 1208.89 1375.339 1208.89 1354.229 975.626 1303.552 700.95 1303.552 604.075 1434.293 616.084 1444.288 649.927"/><path class="cls-6" d="M1401.745,295.489h78.6V191.958h-85.981C1414.3,217.826,1401.745,295.489,1401.745,295.489Z" transform="translate(-90.817 -27.301)"/><path class="cls-4" d="M1525.11,665.22c-2.554,61.316-200.878-37.5-244.114-14.557l52.4-360.647s48.008-19.093,68.345-4.17c28.021,20.561,78.6,0,78.6,0l35.3,14.011S1527.293,612.817,1525.11,665.22Z" transform="translate(-90.817 -27.301)"/><path class="cls-22" d="M1405.32,230.63s14.257,238.034-103.5,388.737c0,0-35.988,88.963-65.1,93.33,0,0-30.394-77.149,6.725-138.09,22.8-37.432,66.833-119.447,69.443-163.2l7.491-125.564Z" transform="translate(-90.817 -27.301)"/><path class="cls-22" d="M1480.35,230.63s-34.4,155.958-35.3,235.642c-0.728,64.776,99.873,280.8,99.873,280.8s62.1-64.811,29.348-139.716c-21.59-49.379-45.683-88.425-42.611-120.859l-0.813-222.9Z" transform="translate(-90.817 -27.301)"/><path class="cls-6" d="M1367.127,172.327a134.958,134.958,0,0,1,5.744-30.817c0.18-.6-4.561-1.357-9.009-1.936a4.1,4.1,0,0,1-2.553-6.786c9.563-10.646,27.075-28.057,29.991-34.432,4.128-9.024.727-2.013,5.693-10.581a80.047,80.047,0,0,0,4.481-7.862c1.525-3.482,5.824-7.039,9.592-7.543,3.935-.527,7.9.4,11.758,1.32,16.545,3.944,31.729,7.228,47.162,14.719,5.706,2.769,11.41,5.652,16.421,9.539a49.767,49.767,0,0,1,16.226,22.329c5.413,15.036,3.26,31.66.12,47.33a40.8,40.8,0,0,1-3.422,11.14c-2.957,5.612-8.154,9.537-13.627,12.9-9.36,5.745-19.094,10.85-28.906,15.785-5.865,2.949-11.794,5.91-18.111,7.733-10.2,2.945-21.01,2.817-31.627,2.539-8.258-.216-16.9-0.614-24.05-4.749-6.635-3.836-11.254-10.591-13.638-17.877S1366.663,179.978,1367.127,172.327Z" transform="translate(-90.817 -27.301)"/><path class="cls-23" d="M1391.486,27.3c15,12.7,35.146,17.359,54.652,19.772s39.475,3.044,58.089,9.356c11.546,3.915,29.505,11.161,35.052,23.007,7.763,16.581,6.513,41.175,2.26,58.435a86.985,86.985,0,0,1-18.14,35.693c-9.625,11.23-21.473,16.694-34.46,23.1-1.1.542-2.192,1.095-3.27,1.678-0.977.528-2.353,1.761-3.417,1.979-2.2.45-2.684-3.333-2.669-5.031a19.278,19.278,0,0,1,3.018-9.443c1.588-2.71,3.667-4.443,5.6-6.85,5.39-6.716,5.055-14.923,5.733-23.03,0.331-3.949.522-8.021-.743-11.775s-4.3-7.16-8.22-7.743c-4.122-.614-8.031,1.919-11.175,4.655a59.854,59.854,0,0,0-14.8,19.569q-0.323-10.361-.645-20.724c-0.148-4.766-.31-9.607-1.783-14.141-1.937-5.957-6.14-11.786-4.644-17.867,0.685-2.785,2.537-5.237,2.838-8.089,0.437-4.133-2.6-7.978-6.266-9.93s-7.9-2.454-12-3.178c-6.417-1.138-12.454-3.257-18.688-4.973-5.8-1.6-11.668-3.69-16.217-7.764-4.711-4.223-7.554-10.22-8.986-16.384s-1.563-12.546-1.593-18.874A92.2,92.2,0,0,1,1391.486,27.3Z" transform="translate(-90.817 -27.301)"/><path class="cls-6" d="M1627.368,400.295l42.228,108.93a38.462,38.462,0,0,1-2.975,33.948l-134.235,170.9-23.82-35.755L1594.654,542.1a40.728,40.728,0,0,0-.912-37.14l-41.7-73.369S1602.614,450.4,1627.368,400.295Z" transform="translate(-90.817 -27.301)"/><path class="cls-6" d="M1508.567,678.32l-15.373,2.737-10.625,9.781a9.58,9.58,0,0,0-.733,13.343l3.152,3.616-4.755,7.607a8.786,8.786,0,0,0,.638,10.206l14.846,18.227a8.788,8.788,0,0,0,11.447,1.915l16.09-9.989a15.05,15.05,0,0,0,6.834-9.906l2.3-11.783Z" transform="translate(-90.817 -27.301)"/><path class="cls-18" d="M1515.9,1245.114s-5.267,22.951,12.864,43.414a10.978,10.978,0,0,1,2.9,7.225v20.716h-82.97v-11a23.557,23.557,0,0,1,4.658-14.02c7.431-10.056,20.794-30.851,17.329-46.332H1515.9Z" transform="translate(-90.817 -27.301)"/><path class="cls-19" d="M1515.69,1245.113h0.206s-0.064.356-.1,0.564C1515.765,1245.5,1515.713,1245.293,1515.69,1245.113Z" transform="translate(-90.817 -27.301)"/><path class="cls-20" d="M1531.66,1301.534v14.935h-82.97v-11a23.271,23.271,0,0,1,.348-3.932h82.622Z" transform="translate(-90.817 -27.301)"/><rect class="cls-20" x="1476.899" y="1256.896" width="24.061" height="5.393" rx="0.271" ry="0.271" transform="translate(2887.043 2491.884) rotate(180)"/><rect class="cls-20" x="1473.996" y="1268.927" width="24.061" height="5.393" rx="0.271" ry="0.271" transform="translate(2881.235 2515.946) rotate(180)"/><path class="cls-22" d="M1480.35,230.63l54.756,35.746,24.4,11.609A68.547,68.547,0,0,1,1593.933,315l43.989,100.09c-47.529,9.221-49.492,52.163-83.364,44.156l-48.613-115.722-25.6-57.68V230.63Z" transform="translate(-90.817 -27.301)"/><path class="cls-22" d="M1405.32,230.63l-54.886,23.555-30.6,7.994a64.963,64.963,0,0,0-42.768,36.081l-51.09,101.555c32.752,0,66.791,43.876,72.054,35.415l62.774-110.082Z" transform="translate(-90.817 -27.301)"/><path class="cls-24" d="M1387.966,206.958a15.415,15.415,0,0,1,7.609-15.336h0a8.244,8.244,0,0,0,3.648-4.344l4.844-13.385a22.459,22.459,0,0,0,1.1-10.943l-1.542-10.373a8.654,8.654,0,0,0-12.121-6.616l-17.657,7.969-10.893,10.683-0.071.153c-0.745,9.331-.6,18.971,2.326,27.9,2.66,8.127,7.814,15.664,15.216,19.944a33.43,33.43,0,0,0,8.7,3.3Z" transform="translate(-90.817 -27.301)"/><path class="cls-6" d="M1232.007,403.954L1351.268,212.28V180.238a14.943,14.943,0,0,1,4.479-10.668l13.44-13.179,15.826-7.144a7.758,7.758,0,0,1,10.866,5.931l1.382,9.3a20.124,20.124,0,0,1-.982,9.807l-4.342,12a7.4,7.4,0,0,1-3.269,3.894h0a13.82,13.82,0,0,0-6.82,13.749l1.164,9.025,21.035,4.153-26.352,20.282-85.884,197.931a33.855,33.855,0,0,1-45.43,17.177h0A33.856,33.856,0,0,1,1232.007,403.954Z" transform="translate(-90.817 -27.301)"/></svg>