<svg id="Layer_2" data-name="Layer 2" xmlns="http://www.w3.org/2000/svg" xmlns:xlink="http://www.w3.org/1999/xlink" viewBox="0 0 259.701 236.036"><defs><style>.cls-1{fill:#f3f7fb;}.cls-2{fill:url(#linear-gradient);}.cls-3{fill:url(#linear-gradient-2);}.cls-4{fill:#8690ec;}.cls-5{fill:#2b44ff;}.cls-6{fill:url(#linear-gradient-3);}.cls-7{fill:url(#linear-gradient-4);}.cls-8{fill:#2f3676;}.cls-9{fill:#717386;}.cls-10{fill:#ff9a20;}.cls-11{fill:url(#linear-gradient-5);}.cls-12{fill:url(#linear-gradient-6);}.cls-13{fill:#ff794e;}.cls-14{fill:#ff4130;}.cls-15{fill:#cea282;}.cls-16{fill:#e4e5e9;}.cls-17{fill:#ccccce;}.cls-18{fill:#86c5c7;}.cls-19{fill:#231f20;opacity:0.2;}.cls-20{fill:#101030;}.cls-21{fill:#b0b0b0;}.cls-22{fill:#919191;}.cls-23{fill:#f5f7f9;}.cls-24{fill:#ed7e06;}</style><linearGradient id="linear-gradient" x1="230.032" y1="205.011" x2="306.212" y2="205.011" gradientTransform="matrix(-1, 0, 0, 1, 451.739, 0)" gradientUnits="userSpaceOnUse"><stop offset="0" stop-color="#ffe1d7"/><stop offset="0.136" stop-color="#ffebe4"/><stop offset="0.331" stop-color="#fff"/></linearGradient><linearGradient id="linear-gradient-2" x1="359.067" y1="191.065" x2="359.333" y2="219.786" gradientTransform="matrix(-1, 0, 0, 1, 451.739, 0)" gradientUnits="userSpaceOnUse"><stop offset="0.262" stop-color="#ffe1d7"/><stop offset="1" stop-color="#fff"/></linearGradient><linearGradient id="linear-gradient-3" x1="231.6" y1="166.653" x2="313.732" y2="166.653" xlink:href="#linear-gradient"/><linearGradient id="linear-gradient-4" x1="340.746" y1="148.001" x2="341.102" y2="186.414" xlink:href="#linear-gradient-2"/><linearGradient id="linear-gradient-5" x1="231.338" y1="127.917" x2="307.519" y2="127.917" xlink:href="#linear-gradient"/><linearGradient id="linear-gradient-6" x1="337.364" y1="114.166" x2="337.626" y2="142.485" xlink:href="#linear-gradient-2"/></defs><title>details-1</title><path class="cls-1" d="M70.519,24.066c-28.939,18-61.072,49.951-68.556,84.2C-15.518,188.234,87.8,236.892,152.585,235.754c41.174-.723,83.728-22.733,99.84-60.631,10.484-24.66,8.887-53.279,0-78.559C224.124,16.036,146.494-23.181,70.519,24.066Z" transform="translate(0 0.262)"/><path class="cls-2" d="M206.981,190.285a14.726,14.726,0,0,1,0,29.452H145.526V190.285h61.455Z" transform="translate(0 0.262)"/><path class="cls-3" d="M148.58,219.741a39.821,39.821,0,0,0,0-29.458H33.815a39.566,39.566,0,0,1,2.824,14.729,39.565,39.565,0,0,1-2.824,14.729H148.58Z" transform="translate(0 0.262)"/><rect class="cls-4" x="29.271" y="188.981" width="134.618" height="3.135"/><rect class="cls-4" x="29.271" y="218.433" width="134.618" height="3.135"/><path class="cls-5" d="M138.446,221.305h68.535a16.293,16.293,0,1,0,0-32.587H138.446v3.135h68.535a13.159,13.159,0,1,1,0,26.317H138.446v3.135Z" transform="translate(0 0.262)"/><path class="cls-6" d="M200.182,146.7a19.957,19.957,0,0,1,0,39.915H138.006V146.7h62.175Z" transform="translate(0 0.262)"/><path class="cls-7" d="M157.5,186.615a53.965,53.965,0,0,0,0-39.923h-97a53.965,53.965,0,0,1,0,39.923h97Z" transform="translate(0 0.262)"/><path class="cls-8" d="M138.007,188.735h62.175a22.081,22.081,0,1,0,0-44.163H138.007v4.248h62.175a17.833,17.833,0,1,1,0,35.666H138.007v4.248Z" transform="translate(0 0.262)"/><rect class="cls-9" x="54.339" y="144.835" width="87.443" height="4.248"/><rect class="cls-9" x="54.339" y="184.749" width="87.443" height="4.248"/><polygon class="cls-10" points="167.875 181.443 175.093 178.24 182.31 181.443 182.31 167.572 167.875 167.572 167.875 181.443"/><path class="cls-11" d="M205.675,113.191a14.726,14.726,0,0,1,0,29.452H144.22V113.191h61.455Z" transform="translate(0 0.262)"/><path class="cls-12" d="M147.274,142.646a39.821,39.821,0,0,0,0-29.458H78.531a39.82,39.82,0,0,1,0,29.458h68.743Z" transform="translate(0 0.262)"/><rect class="cls-13" x="73.987" y="111.886" width="88.596" height="3.135"/><rect class="cls-13" x="73.987" y="141.338" width="88.596" height="3.135"/><path class="cls-14" d="M137.14,144.211h68.535a16.293,16.293,0,1,0,0-32.587H137.14v3.135h68.535a13.159,13.159,0,1,1,0,26.317H137.14v3.135Z" transform="translate(0 0.262)"/><path class="cls-15" d="M141.35,83.828l-3.822-.971-9.238,1.576-5.1,4.767,1.229,4.155h0a2.788,2.788,0,0,0,1.883-3.463l-0.1-.322,1.643-1.431-0.462,1.993,1.179,3.749h0a2.78,2.78,0,0,0,1.856-3.525l-0.291-.9,0.619-.988,1.127-.333,8.67,2.2,1.675-.5,0.609-1.021Z" transform="translate(0 0.262)"/><rect class="cls-15" x="87.433" y="152.614" width="10.942" height="10.1" transform="translate(63.623 -22.716) rotate(21.302)"/><path class="cls-16" d="M83.864,150.342l-13.935,3.3-6.2-.471a3.087,3.087,0,0,0-3.11,1.957l-0.663,1.7,34.112,13.3,2.537-1.872,3.924-10.064-1.67-.35-3.808,2.43-4.7-1.835Z" transform="translate(0 0.262)"/><path class="cls-17" d="M61.6,153.857a3.045,3.045,0,0,0-.981,1.272l-0.663,1.7,34.112,13.3,2.537-1.872,1.223-3.137-2.536,1.872Z" transform="translate(0 0.262)"/><polygon class="cls-17" points="81.102 154.604 81.408 153.82 77.206 152.182 75.764 152.523 81.102 154.604"/><polygon class="cls-17" points="84.049 152.93 80.269 151.456 78.827 151.798 83.743 153.714 84.049 152.93"/><polygon class="cls-17" points="78.418 155.393 78.724 154.609 74.278 152.875 72.836 153.216 78.418 155.393"/><polygon class="cls-18" points="112.783 106.216 87.16 152.272 101.048 157.374 124.567 124.733 112.783 106.216"/><rect class="cls-15" x="140.032" y="149.51" width="10.942" height="10.1" transform="matrix(0.941, -0.338, 0.338, 0.941, -43.715, 58.611)"/><path class="cls-16" d="M133.877,154.982l-8.336,11.644-4.985,3.721a3.088,3.088,0,0,0-1.059,3.519l0.618,1.718,34.454-12.389,0.682-3.078L151.6,149.952l-1.489.834-1.274,4.334-4.752,1.709Z" transform="translate(0 0.262)"/><path class="cls-17" d="M119.4,172.262a3.046,3.046,0,0,0,.1,1.6l0.618,1.718,34.454-12.389,0.682-3.078-1.139-3.168-0.682,3.078Z" transform="translate(0 0.262)"/><polygon class="cls-17" points="134.424 160.074 134.139 159.282 129.894 160.808 129.032 162.012 134.424 160.074"/><polygon class="cls-17" points="135.545 156.875 131.726 158.248 130.864 159.453 135.829 157.667 135.545 156.875"/><polygon class="cls-17" points="132.918 162.432 132.633 161.64 128.143 163.255 127.28 164.459 132.918 162.432"/><polygon class="cls-19" points="110.239 110.789 121.066 129.592 124.567 124.733 112.783 106.216 110.239 110.789"/><path class="cls-18" d="M185.59,90.869V99.49a15.631,15.631,0,0,1-15.631,15.631H137.691a2.671,2.671,0,0,0-2.375,3.894l15.325,29.767-13.356,4.329-24.53-42.6a8.8,8.8,0,0,1,7.682-13.183l34.816-4.791,1.93-3.131V85.93Z" transform="translate(0 0.262)"/><path class="cls-20" d="M164.9,16.626a10.188,10.188,0,0,0-.573-3.421c-0.2-.479-0.472-0.925-0.655-1.411-0.571-1.512-.236-3.282-0.953-4.731-0.913-1.848-2.568-4.458-4.868-4.62a2.557,2.557,0,0,1-.911-0.133,2.059,2.059,0,0,1-.489-0.37c-1.078-.978-3.919-2.928-5.421-1.924-0.222.148-.406,0.349-0.637,0.482-0.789.454-1.766-.011-2.674-0.074a3.066,3.066,0,0,0-2.75,1.472c-0.353.583-.274,0.822-1.036,0.9-0.6.06-1.2-.042-1.8-0.027a3.983,3.983,0,0,0-2.572,1.108,5.444,5.444,0,0,0-1.229,1.778,1.893,1.893,0,0,1-1.021,1.212c-0.354.106-.733,0.114-1.081,0.237a2.314,2.314,0,0,0-1.1.907c-1.332,1.945-3.606,3.448-3.84,6.012a2.16,2.16,0,0,0,.989,2.228,2.789,2.789,0,0,0,1.927-.113,1.747,1.747,0,0,0-.785,1.158c-0.023.72,0.966,1.2,1.527,1.453a3.879,3.879,0,0,0,2.7-.038,11.114,11.114,0,0,1,3.526-1,5.773,5.773,0,0,1,1.057.141c2.5,0.513,4.636,1.761,6.988,2.7,2.446,0.974,4.951,1.79,7.453,2.606a12.232,12.232,0,0,0,3.011.706c0.612,0.037,1.228-.018,1.837.054,0.834,0.1,1.855.758,2.668,0.7,0.68-.052,1.2-1.166,1.418-1.786a7.741,7.741,0,0,0,.227-2.92,6,6,0,0,0-.287-1.817A4.53,4.53,0,0,1,164.9,16.626Z" transform="translate(0 0.262)"/><path class="cls-15" d="M169.862,28.1l-11.24,13.357s-0.007-10.176-4.742-10.475l8.971-9.642Z" transform="translate(0 0.262)"/><path class="cls-15" d="M136.457,15.994a56.009,56.009,0,0,0,2.167,5.941c0.575,1.275.617,6.17,2.672,7.766,0.12,0.093,2.456-1.714,2.545-1.589,0.184,0.258,1.7,1.718,3.158,3.1a4.814,4.814,0,0,0,5.938.54c4.458-2.9,12.065-7.8,12.221-7.561L154.122,7.038Z" transform="translate(0 0.262)"/><path class="cls-20" d="M165.24,23.982a2.092,2.092,0,0,0-.029-1.365c-0.269-1.433-.728-2.867-1.136-4.262a34.416,34.416,0,0,0-1.659-4.636A15.147,15.147,0,0,0,158.3,8.128a22.735,22.735,0,0,0-3.672-2.255,7.752,7.752,0,0,0-1.683-.728,7.789,7.789,0,0,0-3.865.344,10.547,10.547,0,0,0-2.859,1.057c-1.292.79-2.233,2.128-3.641,2.686a54.941,54.941,0,0,1-5.584,1.41c-1.7.476-1.837,2.516-1.723,4.028a4.8,4.8,0,0,0,.626,2.185,4.463,4.463,0,0,0,1.37,1.575l0.111-.3,0.423-.187c1.8-.294,3.21-1.754,4.97-2.239a5.919,5.919,0,0,1,5.593,1.71,8.538,8.538,0,0,1,1.817,2.824,11.549,11.549,0,0,1,.526,1.655,3,3,0,0,0,.174.849,1.587,1.587,0,0,0,.842-0.045,1.078,1.078,0,0,0,.728-0.368,1.351,1.351,0,0,0,.107-1.006c-0.263-1.7-.7-3.641-0.186-5.344,0.417-1.389,2.127-1.831,3.4-1.484a2.071,2.071,0,0,1,1.353,1.078,2.6,2.6,0,0,1-.087,2c-0.476,1.214-.969,2.409-1.409,3.642a0.694,0.694,0,0,0,.358,1.056,4.927,4.927,0,0,0,1.31.584,7.232,7.232,0,0,0,2.549.121l1.009-.167a3.33,3.33,0,0,0,.54-0.12c0.384-.132.47-0.321,0.831,0a1.175,1.175,0,0,1,.4.875,5.358,5.358,0,0,0-.081.907,0.2,0.2,0,0,0,.055.123,0.222,0.222,0,0,0,.144.037c0.431,0.009.843,0.14,1.275,0.126a1.48,1.48,0,0,0,1.187-.716C165.216,24.028,165.228,24.005,165.24,23.982Z" transform="translate(0 0.262)"/><path class="cls-10" d="M169.862,28.1l10.653,5.743a6.574,6.574,0,0,1,2.786,2.9l3.924,8.025a22.032,22.032,0,0,1,2.19,11.148c-0.48,7.179-.737,14.379-1.106,21.564q-0.408,7.949-.815,15.9-0.152,2.968-.3,5.936c-0.036.7,0.232,2.747-.171,3.339a1.155,1.155,0,0,0-.017.406c-10.881,8.678-22.455-12.7-33.053-10.6-0.15.03-.011-5.023,0-5.738,0.015-.93,0-1.851.065-2.79,0.1-1.408.286-2.819,0.342-4.229,0.115-2.945.252-5.89,0.36-8.835a18.25,18.25,0,0,0-.262-2.442,8.689,8.689,0,0,0-.143-1.846,11.222,11.222,0,0,1-.134-4.229,13.714,13.714,0,0,0,.215-2.527,16.053,16.053,0,0,1-.168-2.118c0.047-1.64.3-3.263,0.492-4.89,0.144-1.236.122-2.463,0.213-3.7a17.516,17.516,0,0,1,.848-3.548,15.9,15.9,0,0,1,3.633-6.634Z" transform="translate(0 0.262)"/><path class="cls-19" d="M180.043,83.66a5.463,5.463,0,0,0,4.794-5.861l-2.906-36.277H166.717l3.145,33.349-15.554,5.509c-0.077,1.186-.208,2.373-0.293,3.557-0.067.938-.05,1.86-0.065,2.789-0.005.319-.036,1.5-0.054,2.709Z" transform="translate(0 0.262)"/><path class="cls-10" d="M166.717,39.839l3.145,33.349L141.3,83.307l0.807,7.053,37.94-8.383a5.464,5.464,0,0,0,4.794-5.861l-2.906-36.277H166.717Z" transform="translate(0 0.262)"/><path class="cls-21" d="M115.654,95.452h0a1.172,1.172,0,0,1-1.638-.254L96.858,71.961a1.172,1.172,0,0,1,.255-1.638h0a1.172,1.172,0,0,1,1.638.254l17.158,23.237A1.172,1.172,0,0,1,115.654,95.452Z" transform="translate(0 0.262)"/><path class="cls-21" d="M152.312,93.457l-38.866,4.694a1.679,1.679,0,0,1-1.869-1.466h0a1.679,1.679,0,0,1,1.466-1.869l38.866-4.694a1.679,1.679,0,0,1,1.868,1.466h0A1.679,1.679,0,0,1,152.312,93.457Z" transform="translate(0 0.262)"/><path class="cls-22" d="M153.6,91.054a1.729,1.729,0,0,1-1.4.96L113.33,96.707a1.662,1.662,0,0,1-1.674-.738,1.656,1.656,0,0,0-.079.716,1.679,1.679,0,0,0,1.869,1.466l38.866-4.694a1.679,1.679,0,0,0,1.466-1.868A1.658,1.658,0,0,0,153.6,91.054Z" transform="translate(0 0.262)"/><rect class="cls-23" x="139.751" y="92.313" width="3.09" height="1.185" transform="translate(-10.118 17.87) rotate(-6.885)"/><rect class="cls-23" x="143.386" y="91.874" width="3.089" height="1.185" transform="translate(-10.043 18.309) rotate(-6.887)"/><rect class="cls-23" x="117.579" y="94.991" width="3.089" height="1.185" transform="translate(-10.602 15.236) rotate(-6.887)"/><polygon class="cls-24" points="159.409 39.206 161.602 44.351 169.862 28.367 159.409 39.206"/><polygon class="cls-24" points="159.409 39.206 158.13 43.299 157.961 36.359 159.409 39.206"/></svg>