<svg id="Layer_3" data-name="Layer 3" xmlns="http://www.w3.org/2000/svg" xmlns:xlink="http://www.w3.org/1999/xlink" viewBox="0 0 145 42"><defs><style>.cls-1,.cls-3,.cls-5{fill:#2b44ff;}.cls-1{clip-rule:evenodd;}.cls-2{fill:#181c3b;}.cls-3{fill-rule:evenodd;}.cls-4{clip-path:url(#clip-path);}.cls-6{clip-path:url(#clip-path-2);}.cls-7{clip-path:url(#clip-path-3);}.cls-8{clip-path:url(#clip-path-4);}</style><clipPath id="clip-path"><path class="cls-1" d="M42,21A21.013,21.013,0,0,1,14.852,41.085C45.795,38.8,39.047,7.19,31.527,2.826A20.991,20.991,0,0,1,42,21"/></clipPath><clipPath id="clip-path-2"><path class="cls-1" d="M11.209,39.581C20.178,27.118,17.423,16.315,16.7,16.17a3.48,3.48,0,0,1-3.48,3.48c-2.521,0-4.091-2.667-4.092-4.956a5.568,5.568,0,0,1,9.5-3.939c4.762,4.761,4.365,12.641.984,19.371C25.392,23.676,36.708,0,21,0a21,21,0,0,0-9.791,39.581"/></clipPath><clipPath id="clip-path-3"><path class="cls-1" d="M10.757,10.756a5.567,5.567,0,0,1,7.872,0c4.762,4.761,4.365,12.641.984,19.371,2.755-3.075,6.767-10.065,8.511-16.539,1.681-6.544-12.894-10.578-17.367-2.83"/></clipPath><clipPath id="clip-path-4"><path class="cls-1" d="M11.209,39.581a35.5,35.5,0,0,0,5.12-10.014C1.8,29.5.623,11.072,8.53,4.1a21,21,0,0,0,2.679,35.478"/></clipPath></defs><title>logo</title><path class="cls-2" d="M58.546,5.033L67.48,30.021,76.32,5.033h6.748L70.179,38.071h-5.4L51.8,5.033h6.747Z"/><path class="cls-2" d="M86,10.291V4.1h6.235v6.189H86Zm0,27.779V13.688h6.235V38.071H86Z"/><path class="cls-2" d="M107.077,38.535a18.847,18.847,0,0,1-6-.977,14.613,14.613,0,0,1-5.026-2.792l2.327-3.908a19.972,19.972,0,0,0,4.351,2.4,11.65,11.65,0,0,0,4.211.814,5.318,5.318,0,0,0,2.931-.7,2.248,2.248,0,0,0,1.071-2,2,2,0,0,0-1.256-1.908,27.271,27.271,0,0,0-4.1-1.4q-2.372-.651-4.048-1.256a10.409,10.409,0,0,1-2.7-1.372,4.7,4.7,0,0,1-1.488-1.769,5.642,5.642,0,0,1-.466-2.4,7.587,7.587,0,0,1,.722-3.35,7.307,7.307,0,0,1,2.024-2.536,9.375,9.375,0,0,1,3.048-1.605,12.381,12.381,0,0,1,3.791-.558,16.311,16.311,0,0,1,5.142.791,12.537,12.537,0,0,1,4.4,2.559L113.5,20.342a14.62,14.62,0,0,0-3.606-2.046,9.85,9.85,0,0,0-3.467-.652,5.01,5.01,0,0,0-2.652.652,2.264,2.264,0,0,0-1.071,2.094,2.019,2.019,0,0,0,.257,1.069,2.239,2.239,0,0,0,.814.745,8.011,8.011,0,0,0,1.466.628q0.907,0.3,2.257.628,2.513,0.652,4.3,1.3a11.75,11.75,0,0,1,2.931,1.489,5.3,5.3,0,0,1,1.675,1.931,5.936,5.936,0,0,1,.536,2.63,6.785,6.785,0,0,1-2.652,5.653A11.425,11.425,0,0,1,107.077,38.535Z"/><path class="cls-2" d="M132.251,38.535a13.393,13.393,0,0,1-5.352-1.023,12.008,12.008,0,0,1-4.024-2.768,12.2,12.2,0,0,1-2.536-4.026,13.133,13.133,0,0,1-.885-4.792,13.268,13.268,0,0,1,.885-4.839,12.214,12.214,0,0,1,2.536-4.026,12.017,12.017,0,0,1,4.024-2.768,13.382,13.382,0,0,1,5.352-1.024,13.217,13.217,0,0,1,5.327,1.024,12.086,12.086,0,0,1,4,2.768,12.254,12.254,0,0,1,2.536,4.026A13.293,13.293,0,0,1,145,25.926a13.158,13.158,0,0,1-.884,4.792,12.429,12.429,0,0,1-2.513,4.026,11.778,11.778,0,0,1-4,2.768A13.4,13.4,0,0,1,132.251,38.535Zm-6.375-12.609a8.469,8.469,0,0,0,.489,2.954,7.179,7.179,0,0,0,1.349,2.3,6.034,6.034,0,0,0,2.024,1.513,6.174,6.174,0,0,0,5.026,0,6.046,6.046,0,0,0,2.024-1.513,7.153,7.153,0,0,0,1.349-2.326,8.673,8.673,0,0,0,.489-2.979,8.531,8.531,0,0,0-.489-2.931,7.185,7.185,0,0,0-1.349-2.327,6.059,6.059,0,0,0-2.024-1.512,5.95,5.95,0,0,0-2.513-.535,5.724,5.724,0,0,0-2.514.558,6.306,6.306,0,0,0-2.024,1.535,7.144,7.144,0,0,0-1.349,2.326A8.544,8.544,0,0,0,125.877,25.926Z"/><path class="cls-3" d="M42,21A21.013,21.013,0,0,1,14.852,41.085C30.825,30.054,37.127,14.045,31.527,2.826A20.991,20.991,0,0,1,42,21"/><path class="cls-3" d="M42,21A21.013,21.013,0,0,1,14.852,41.085C45.795,38.8,39.047,7.19,31.527,2.826A20.991,20.991,0,0,1,42,21"/><g class="cls-4"><rect class="cls-5" x="14.852" y="2.826" width="30.943" height="39.174"/></g><path class="cls-3" d="M11.209,39.581C20.178,27.118,17.423,16.315,16.7,16.17a3.48,3.48,0,0,1-3.48,3.48c-2.521,0-4.091-2.667-4.092-4.956a5.568,5.568,0,0,1,9.5-3.939c4.762,4.761,4.365,12.641.984,19.371C25.392,23.676,36.708,0,21,0a21,21,0,0,0-9.791,39.581"/><g class="cls-6"><rect class="cls-5" width="36.708" height="39.581"/></g><path class="cls-3" d="M10.757,10.756a5.567,5.567,0,0,1,7.872,0c4.762,4.761,4.365,12.641.984,19.371,2.755-3.075,6.767-10.065,8.511-16.539,1.681-6.544-12.894-10.578-17.367-2.83"/><g class="cls-7"><rect class="cls-5" x="10.757" y="3.008" width="19.049" height="27.117"/></g><path class="cls-3" d="M11.209,39.581a35.5,35.5,0,0,0,5.12-10.014C1.8,29.5.623,11.072,8.53,4.1a21,21,0,0,0,2.679,35.478"/><g class="cls-8"><rect class="cls-5" y="4.103" width="16.329" height="35.478"/></g></svg>